<?xml version="1.0" encoding="UTF-8" standalone="no"?>
<svg
   xml:space="preserve"
   width="16"
   height="16"
   version="1.0"
   viewBox="0 0 2.4 2.4"
   id="svg948"
   sodipodi:docname="AudioStreamPlayerLipsync.svg"
   inkscape:export-filename="C:\Games\Godot\godot-baked-lipsync\addons\baked_lipsync\nodes\AudioStreamPlayerLipsync\AudioStreamPlayerLipsync.png"
   inkscape:export-xdpi="96"
   inkscape:export-ydpi="96"
   inkscape:version="1.1.2 (b8e25be833, 2022-02-05)"
   xmlns:inkscape="http://www.inkscape.org/namespaces/inkscape"
   xmlns:sodipodi="http://sodipodi.sourceforge.net/DTD/sodipodi-0.dtd"
   xmlns="http://www.w3.org/2000/svg"
   xmlns:svg="http://www.w3.org/2000/svg"><defs
     id="defs952" /><sodipodi:namedview
     id="namedview950"
     pagecolor="#ffffff"
     bordercolor="#666666"
     borderopacity="1.0"
     inkscape:pageshadow="2"
     inkscape:pageopacity="0.0"
     inkscape:pagecheckerboard="0"
     showgrid="false"
     inkscape:zoom="50.5"
     inkscape:cx="8.2871287"
     inkscape:cy="8.5544554"
     inkscape:window-width="1920"
     inkscape:window-height="1017"
     inkscape:window-x="-8"
     inkscape:window-y="-8"
     inkscape:window-maximized="1"
     inkscape:current-layer="svg948" /><path
     fill="#e0e0e0"
     d="M 1.0330945,0.02519705 A 0.09010849,0.09010849 0 0 0 0.9592055,0.05222959 L 0.44558719,0.56584796 H 0.19148127 c -0.0838009,0 -0.15138226,0.0603727 -0.15138226,0.13516272 V 1.2416615 c 0,0.07479 0.06758136,0.1351628 0.15138226,0.1351628 h 0.25410592 l 0.51361835,0.5136184 c 0.0594716,0.060373 0.16219526,0.018022 0.16219526,-0.06668 V 0.12071204 A 0.095515,0.095515 0 0 0 1.0330945,0.02519705"
     paint-order="markers stroke fill"
     id="path944"
     style="stroke-width:0.901085" /><path
     fill="none"
     stroke="#e0e0e0"
     stroke-linecap="round"
     stroke-linejoin="round"
     stroke-width="0.260653"
     d="m 1.5377725,0.19097757 c 0.7608207,0.77490032 0,1.54980083 0,1.54980083"
     paint-order="markers stroke fill"
     id="path946"
     sodipodi:nodetypes="cc" /><path
     style="fill:none;stroke:#636363;stroke-width:0.4653;stroke-linecap:round;stroke-linejoin:miter;stroke-miterlimit:4;stroke-dasharray:none;stroke-opacity:1"
     d="M 0.45350773,1.8342871 C 0.52280533,1.8039881 0.74340164,1.5543924 0.99174555,1.536419 1.2400894,1.518446 1.228859,1.587726 1.3289636,1.604583 1.4157036,1.58206 1.5170428,1.528969 1.6863327,1.546607 1.8556226,1.564246 2.1262729,1.8101079 2.2041789,1.8342858"
     id="path1609"
     sodipodi:nodetypes="czczc" /><path
     style="fill:none;stroke:#636363;stroke-width:0.4653;stroke-linecap:round;stroke-linejoin:miter;stroke-miterlimit:4;stroke-dasharray:none;stroke-opacity:1"
     d="M 2.2041789,1.8342854 C 2.0355155,1.9080085 1.8296175,2.202698 1.3354051,2.1952334 0.84119265,2.187765 0.61600163,1.9001401 0.45350773,1.8342854"
     id="path4361"
     sodipodi:nodetypes="czc" /><path
     style="fill:none;stroke:#feffb9;stroke-width:0.255232;stroke-linecap:round;stroke-linejoin:miter;stroke-miterlimit:4;stroke-dasharray:none;stroke-opacity:1"
     d="m 0.45350775,1.8342875 c 0.069298,-0.030299 0.2898939,-0.2798947 0.5382378,-0.2978681 0.24834385,-0.017973 0.23711345,0.051307 0.33721805,0.068164 0.08674,-0.022523 0.1880792,-0.075614 0.3573691,-0.057976 0.1692899,0.017639 0.4399402,0.2635009 0.5178462,0.2876788"
     id="path1609-8"
     sodipodi:nodetypes="czczc" /><path
     style="fill:none;stroke:#feffb9;stroke-width:0.255232;stroke-linecap:round;stroke-linejoin:miter;stroke-miterlimit:4;stroke-dasharray:none;stroke-opacity:1"
     d="M 2.2041789,1.8342858 C 2.0355155,1.9080089 1.8296175,2.2026984 1.3354051,2.1952338 0.84119265,2.1877654 0.61600165,1.9001405 0.45350775,1.8342858"
     id="path4361-4"
     sodipodi:nodetypes="czc" /></svg>
